<svg width="129" height="33" viewBox="0 0 129 33" fill="none" xmlns="http://www.w3.org/2000/svg">
<path d="M16.864 32.484C14.488 32.484 12.288 32.088 10.264 31.296C8.26933 30.4747 6.50933 29.3307 4.984 27.864C3.488 26.3973 2.31467 24.696 1.464 22.76C0.642667 20.7947 0.232 18.668 0.232 16.38C0.232 14.0627 0.657333 11.936 1.508 10C2.388 8.03467 3.60533 6.33333 5.16 4.896C6.71467 3.42933 8.51867 2.3 10.572 1.508C12.6547 0.686666 14.8693 0.275999 17.216 0.275999C20.0027 0.275999 22.5253 0.774666 24.784 1.772C27.0427 2.74 28.876 4.08933 30.284 5.82L25.004 11.1C23.948 9.83867 22.7893 8.9 21.528 8.284C20.2667 7.63866 18.8 7.316 17.128 7.316C15.4267 7.316 13.9013 7.69733 12.552 8.46C11.232 9.19333 10.176 10.2347 9.384 11.584C8.592 12.9333 8.196 14.5173 8.196 16.336C8.196 18.1547 8.56267 19.7533 9.296 21.132C10.0587 22.5107 11.0853 23.5813 12.376 24.344C13.696 25.1067 15.2067 25.488 16.908 25.488C18.6093 25.488 20.0467 25.1653 21.22 24.52C22.4227 23.8747 23.332 22.936 23.948 21.704C24.5933 20.472 24.916 19.0053 24.916 17.304L30.24 20.736L16.028 20.384V13.96H32.836V15.148C32.836 18.8733 32.1613 22.0267 30.812 24.608C29.4627 27.1893 27.5853 29.1547 25.18 30.504C22.804 31.824 20.032 32.484 16.864 32.484ZM45.5967 32.484C43.1914 32.484 41.0647 32.0147 39.2167 31.076C37.3687 30.108 35.9167 28.7733 34.8607 27.072C33.8047 25.3707 33.2767 23.42 33.2767 21.22C33.2767 19.0493 33.79 17.128 34.8167 15.456C35.8434 13.7547 37.2367 12.42 38.9967 11.452C40.786 10.4547 42.7954 9.956 45.0247 9.956C47.1954 9.956 49.1167 10.4253 50.7887 11.364C52.49 12.2733 53.81 13.5493 54.7487 15.192C55.7167 16.8053 56.2007 18.6533 56.2007 20.736C56.2007 21.176 56.1714 21.6307 56.1127 22.1C56.0834 22.54 55.9954 23.0533 55.8487 23.64L36.8847 23.728V18.8L52.8127 18.668L49.3807 20.824C49.3514 19.6213 49.1754 18.6387 48.8527 17.876C48.53 17.084 48.0607 16.4827 47.4447 16.072C46.8287 15.6613 46.0514 15.456 45.1127 15.456C44.1447 15.456 43.3087 15.6907 42.6047 16.16C41.9007 16.6293 41.358 17.2893 40.9767 18.14C40.5954 18.9907 40.4047 20.0173 40.4047 21.22C40.4047 22.452 40.61 23.508 41.0207 24.388C41.4314 25.2387 42.018 25.884 42.7807 26.324C43.5434 26.764 44.482 26.984 45.5967 26.984C46.6527 26.984 47.5767 26.808 48.3687 26.456C49.19 26.104 49.9234 25.5613 50.5687 24.828L54.5727 28.832C53.5167 30.0347 52.226 30.944 50.7007 31.56C49.2047 32.176 47.5034 32.484 45.5967 32.484ZM60.72 32V1.596H68.376V32H60.72ZM55.968 16.864V10.484H87.076V16.864H55.968ZM74.668 32V1.596H82.324V32H74.668ZM98.945 32.484C96.5396 32.484 94.413 32.0147 92.565 31.076C90.717 30.108 89.265 28.7733 88.209 27.072C87.153 25.3707 86.625 23.42 86.625 21.22C86.625 19.0493 87.1383 17.128 88.165 15.456C89.1916 13.7547 90.585 12.42 92.345 11.452C94.1343 10.4547 96.1436 9.956 98.373 9.956C100.544 9.956 102.465 10.4253 104.137 11.364C105.838 12.2733 107.158 13.5493 108.097 15.192C109.065 16.8053 109.549 18.6533 109.549 20.736C109.549 21.176 109.52 21.6307 109.461 22.1C109.432 22.54 109.344 23.0533 109.197 23.64L90.233 23.728V18.8L106.161 18.668L102.729 20.824C102.7 19.6213 102.524 18.6387 102.201 17.876C101.878 17.084 101.409 16.4827 100.793 16.072C100.177 15.6613 99.3996 15.456 98.461 15.456C97.493 15.456 96.657 15.6907 95.953 16.16C95.249 16.6293 94.7063 17.2893 94.325 18.14C93.9436 18.9907 93.753 20.0173 93.753 21.22C93.753 22.452 93.9583 23.508 94.369 24.388C94.7796 25.2387 95.3663 25.884 96.129 26.324C96.8916 26.764 97.8303 26.984 98.945 26.984C100.001 26.984 100.925 26.808 101.717 26.456C102.538 26.104 103.272 25.5613 103.917 24.828L107.921 28.832C106.865 30.0347 105.574 30.944 104.049 31.56C102.553 32.176 100.852 32.484 98.945 32.484ZM111.12 32V10.484H118.776V32H111.12ZM118.776 20.296L115.344 17.392C116.195 14.9573 117.324 13.124 118.732 11.892C120.14 10.66 121.974 10.044 124.232 10.044C125.259 10.044 126.139 10.176 126.872 10.44C127.635 10.704 128.28 11.1147 128.808 11.672L124.364 17.612C124.13 17.348 123.792 17.1427 123.352 16.996C122.942 16.82 122.472 16.732 121.944 16.732C120.947 16.732 120.17 17.04 119.612 17.656C119.055 18.2427 118.776 19.1227 118.776 20.296Z" fill="white"/>
</svg>
