<?xml version="1.0" standalone="no"?>
<!DOCTYPE svg PUBLIC "-//W3C//DTD SVG 20010904//EN"
 "http://www.w3.org/TR/2001/REC-SVG-20010904/DTD/svg10.dtd">
<svg version="1.0" xmlns="http://www.w3.org/2000/svg"
 width="700.000000pt" height="700.000000pt" viewBox="0 0 700.000000 700.000000"
 preserveAspectRatio="xMidYMid meet">
<metadata>
Created by potrace 1.14, written by Peter Selinger 2001-2017
</metadata>
<g transform="translate(0.000000,700.000000) scale(0.100000,-0.100000)"
fill="#000000" stroke="none">
<path d="M0 3500 l0 -3500 3500 0 3500 0 0 3500 0 3500 -3500 0 -3500 0 0
-3500z m4010 1890 c243 -43 468 -122 670 -235 147 -83 235 -149 360 -272 l115
-113 -315 -315 -314 -314 -106 102 c-123 121 -195 172 -334 237 -236 112 -538
138 -801 69 -362 -94 -634 -367 -732 -734 -25 -93 -27 -115 -27 -305 0 -182 2
-216 23 -300 104 -427 415 -720 830 -780 121 -18 374 -8 473 19 99 26 183 60
255 102 75 45 186 149 235 221 41 61 108 194 108 214 0 18 -67 23 -420 29
-173 3 -372 8 -442 11 l-128 7 0 378 0 379 1002 0 1001 0 -6 -198 c-11 -326
-46 -546 -123 -780 -224 -684 -746 -1113 -1469 -1207 -137 -18 -457 -21 -580
-5 -260 33 -459 92 -668 198 -456 231 -793 615 -947 1080 -182 549 -111 1169
187 1635 140 218 344 423 574 574 211 138 499 251 757 298 191 34 179 33 452
30 200 -2 268 -7 370 -25z"/>
</g>
</svg>
